<svg xmlns="http://www.w3.org/2000/svg" viewBox="0 0 760 270" width="760" height="270" role="img" aria-labelledby="title desc"><title id="title">Counting tokens offline: mean error per capture</title><desc id="desc">lx&#39;s pre-tokenizer estimator vs exact tiktoken counts on the same 109 captures (lower is better)</desc><style>
svg{--surface:#fcfcfb;--ink1:#0b0b0b;--ink2:#52514e;--muted:#898781;--grid:#e1e0d9;--axis:#c3c2b7;--s1:#2a78d6;--s2:#eb6834;--s3:#1baf7a}
@media (prefers-color-scheme:dark){svg{--surface:#1a1a19;--ink1:#ffffff;--ink2:#c3c2b7;--muted:#898781;--grid:#2c2c2a;--axis:#383835;--s1:#3987e5;--s2:#d95926;--s3:#199e70}}
text{font-family:system-ui,-apple-system,"Segoe UI",Helvetica,Arial,sans-serif;font-size:12px;fill:var(--ink2)}
.bg{fill:var(--surface)}
.t{font-size:15px;font-weight:600;fill:var(--ink1)}
.st{fill:var(--ink2)}
.m{fill:var(--muted);font-size:11px;font-variant-numeric:tabular-nums}
.v{fill:var(--ink1);font-variant-numeric:tabular-nums}
.l{fill:var(--ink2)}
.g{stroke:var(--grid);stroke-width:1}
.a{stroke:var(--axis);stroke-width:1}
.s1{fill:var(--s1)}.s2{fill:var(--s2)}.s3{fill:var(--s3)}
.k1{stroke:var(--s1)}.k2{stroke:var(--s2)}.k3{stroke:var(--s3)}
.ring{stroke:var(--surface);stroke-width:2}
.conn{stroke:var(--axis);stroke-width:2;stroke-linecap:round}
</style><rect class="bg" width="760" height="270" rx="10"/><text x="24.0" y="30.0" class="t" text-anchor="start">Counting tokens offline: mean error per capture</text><text x="24.0" y="50.0" class="st" text-anchor="start">lx&#39;s pre-tokenizer estimator vs exact tiktoken counts on the same 109 captures (lower is better)</text><rect x="24.0" y="66.0" width="12" height="12" rx="3" class="s1"/><text x="42.0" y="76.0" class="l" text-anchor="start">vs cl100k</text><rect x="117.4" y="66.0" width="12" height="12" rx="3" class="s2"/><text x="135.4" y="76.0" class="l" text-anchor="start">vs o200k</text><line x1="190.0" y1="80.0" x2="190.0" y2="236.0" class="g"/><text x="190.0" y="252.0" class="m" text-anchor="middle">0%</text><line x1="291.2" y1="80.0" x2="291.2" y2="236.0" class="g"/><text x="291.2" y="252.0" class="m" text-anchor="middle">5%</text><line x1="392.4" y1="80.0" x2="392.4" y2="236.0" class="g"/><text x="392.4" y="252.0" class="m" text-anchor="middle">10%</text><line x1="493.6" y1="80.0" x2="493.6" y2="236.0" class="g"/><text x="493.6" y="252.0" class="m" text-anchor="middle">15%</text><line x1="594.8" y1="80.0" x2="594.8" y2="236.0" class="g"/><text x="594.8" y="252.0" class="m" text-anchor="middle">20%</text><line x1="696.0" y1="80.0" x2="696.0" y2="236.0" class="g"/><text x="696.0" y="252.0" class="m" text-anchor="middle">25%</text><line x1="190.0" y1="80.0" x2="190.0" y2="236.0" class="a"/><text x="180.0" y="107.0" class="l" text-anchor="end">bytes ÷ 4 (common rule)</text><path class="s1" d="M190.0 86.0h372.2a4.0 4.0 0 0 1 4.0 4.0v8.0a4.0 4.0 0 0 1 -4.0 4.0h-372.2z"><title>bytes ÷ 4 (common rule) — vs cl100k: 19%</title></path><text x="572.2" y="98.0" class="v" text-anchor="start">19%</text><path class="s2" d="M190.0 104.0h380.6a4.0 4.0 0 0 1 4.0 4.0v8.0a4.0 4.0 0 0 1 -4.0 4.0h-380.6z"><title>bytes ÷ 4 (common rule) — vs o200k: 19%</title></path><text x="580.6" y="116.0" class="v" text-anchor="start">19%</text><text x="180.0" y="155.0" class="l" text-anchor="end">bytes ÷ 3</text><path class="s1" d="M190.0 134.0h405.9a4.0 4.0 0 0 1 4.0 4.0v8.0a4.0 4.0 0 0 1 -4.0 4.0h-405.9z"><title>bytes ÷ 3 — vs cl100k: 20%</title></path><text x="605.9" y="146.0" class="v" text-anchor="start">20%</text><path class="s2" d="M190.0 152.0h394.8a4.0 4.0 0 0 1 4.0 4.0v8.0a4.0 4.0 0 0 1 -4.0 4.0h-394.8z"><title>bytes ÷ 3 — vs o200k: 20%</title></path><text x="594.8" y="164.0" class="v" text-anchor="start">20%</text><text x="180.0" y="203.0" class="l" text-anchor="end">lx estimator</text><path class="s1" d="M190.0 182.0h126.2a4.0 4.0 0 0 1 4.0 4.0v8.0a4.0 4.0 0 0 1 -4.0 4.0h-126.2z"><title>lx estimator — vs cl100k: 6%</title></path><text x="326.2" y="194.0" class="v" text-anchor="start">6%</text><path class="s2" d="M190.0 200.0h117.9a4.0 4.0 0 0 1 4.0 4.0v8.0a4.0 4.0 0 0 1 -4.0 4.0h-117.9z"><title>lx estimator — vs o200k: 6%</title></path><text x="317.9" y="212.0" class="v" text-anchor="start">6%</text></svg>
